<svg width="56" height="56" viewBox="0 0 56 56" fill="none" xmlns="http://www.w3.org/2000/svg">
<g id="motion_photos_on">
<mask id="mask0_3794_98809" style="mask-type:alpha" maskUnits="userSpaceOnUse" x="0" y="0" width="56" height="56">
<rect id="Bounding box" width="56" height="56" fill="#D9D9D9"/>
</mask>
<g mask="url(#mask0_3794_98809)">
<path id="motion_photos_on_2" d="M28.0003 51.3327C24.7725 51.3327 21.7392 50.7202 18.9003 49.4952C16.0614 48.2702 13.592 46.6077 11.492 44.5077C9.39199 42.4077 7.72949 39.9382 6.50449 37.0994C5.27949 34.2605 4.66699 31.2271 4.66699 27.9994C4.66699 26.3271 4.84199 24.6841 5.19199 23.0702C5.54199 21.4563 6.04755 19.891 6.70866 18.3743L10.3253 21.991C10.0142 23.0021 9.77116 24.0035 9.59616 24.9952C9.42116 25.9869 9.33366 26.9882 9.33366 27.9994C9.33366 33.2105 11.142 37.6244 14.7587 41.241C18.3753 44.8577 22.7892 46.666 28.0003 46.666C33.2114 46.666 37.6253 44.8577 41.242 41.241C44.8587 37.6244 46.667 33.2105 46.667 27.9994C46.667 22.7882 44.8587 18.3744 41.242 14.7577C37.6253 11.141 33.2114 9.33268 28.0003 9.33268C26.9503 9.33268 25.9295 9.42018 24.9378 9.59518C23.9462 9.77018 22.9642 10.0132 21.992 10.3243L18.4337 6.76602C19.9892 6.06602 21.5448 5.54102 23.1003 5.19102C24.6559 4.84102 26.2892 4.66602 28.0003 4.66602C31.2281 4.66602 34.2614 5.27852 37.1003 6.50352C39.9392 7.72852 42.4087 9.39102 44.5087 11.491C46.6087 13.591 48.2712 16.0605 49.4962 18.8994C50.7212 21.7382 51.3337 24.7716 51.3337 27.9994C51.3337 31.2271 50.7212 34.2605 49.4962 37.0994C48.2712 39.9382 46.6087 42.4077 44.5087 44.5077C42.4087 46.6077 39.9392 48.2702 37.1003 49.4952C34.2614 50.7202 31.2281 51.3327 28.0003 51.3327ZM12.8337 16.3327C11.8614 16.3327 11.035 15.9924 10.3545 15.3118C9.67394 14.6313 9.33366 13.8049 9.33366 12.8327C9.33366 11.8605 9.67394 11.0341 10.3545 10.3535C11.035 9.67296 11.8614 9.33268 12.8337 9.33268C13.8059 9.33268 14.6323 9.67296 15.3128 10.3535C15.9934 11.0341 16.3337 11.8605 16.3337 12.8327C16.3337 13.8049 15.9934 14.6313 15.3128 15.3118C14.6323 15.9924 13.8059 16.3327 12.8337 16.3327Z" fill="#FBB042"/>
</g>
</g>
</svg>
