<svg width="20" height="20" viewBox="0 0 20 20" fill="none" xmlns="http://www.w3.org/2000/svg">
<g id="settings_applications">
<mask id="mask0_3886_9308" style="mask-type:alpha" maskUnits="userSpaceOnUse" x="0" y="0" width="20" height="20">
<rect id="Bounding box" width="20" height="20" fill="#D9D9D9"/>
</mask>
<g mask="url(#mask0_3886_9308)">
<path id="settings_applications_2" d="M9.16667 14.1667H10.8333L11.0833 12.9167C11.25 12.8472 11.4062 12.7743 11.5521 12.6979C11.6979 12.6215 11.8472 12.5278 12 12.4167L13.2083 12.7917L14.0417 11.375L13.0833 10.5417C13.1111 10.3472 13.125 10.1667 13.125 10C13.125 9.83333 13.1111 9.65278 13.0833 9.45833L14.0417 8.625L13.2083 7.20833L12 7.58333C11.8472 7.47222 11.6979 7.37847 11.5521 7.30208C11.4062 7.22569 11.25 7.15278 11.0833 7.08333L10.8333 5.83333H9.16667L8.91667 7.08333C8.75 7.15278 8.59375 7.22569 8.44792 7.30208C8.30208 7.37847 8.15278 7.47222 8 7.58333L6.79167 7.20833L5.95833 8.625L6.91667 9.45833C6.88889 9.65278 6.875 9.83333 6.875 10C6.875 10.1667 6.88889 10.3472 6.91667 10.5417L5.95833 11.375L6.79167 12.7917L8 12.4167C8.15278 12.5278 8.30208 12.6215 8.44792 12.6979C8.59375 12.7743 8.75 12.8472 8.91667 12.9167L9.16667 14.1667ZM10 11.6667C9.54167 11.6667 9.14931 11.5035 8.82292 11.1771C8.49653 10.8507 8.33333 10.4583 8.33333 10C8.33333 9.54167 8.49653 9.14931 8.82292 8.82292C9.14931 8.49653 9.54167 8.33333 10 8.33333C10.4583 8.33333 10.8507 8.49653 11.1771 8.82292C11.5035 9.14931 11.6667 9.54167 11.6667 10C11.6667 10.4583 11.5035 10.8507 11.1771 11.1771C10.8507 11.5035 10.4583 11.6667 10 11.6667ZM2.5 17.5V2.5H17.5V17.5H2.5ZM4.16667 15.8333H15.8333V4.16667H4.16667V15.8333Z" fill="white"/>
</g>
</g>
</svg>
