<svg width="65" height="64" viewBox="0 0 65 64" fill="none" xmlns="http://www.w3.org/2000/svg">
<g id="info_i">
<mask id="mask0_4619_40560" style="mask-type:alpha" maskUnits="userSpaceOnUse" x="0" y="0" width="65" height="64">
<rect id="Bounding box" x="0.5" width="64" height="64" fill="#D9D9D9"/>
</mask>
<g mask="url(#mask0_4619_40560)">
<path id="info_i_2" d="M32.4862 19.1996C31.1622 19.1996 30.0335 18.7283 29.1002 17.7856C28.1669 16.8429 27.7002 15.7096 27.7002 14.3856C27.7002 13.0616 28.1715 11.9329 29.1142 10.9996C30.0569 10.0663 31.1902 9.59961 32.5142 9.59961C33.8382 9.59961 34.9669 10.0709 35.9002 11.0136C36.8335 11.9563 37.3002 13.0896 37.3002 14.4136C37.3002 15.7376 36.8289 16.8663 35.8862 17.7996C34.9435 18.7329 33.8102 19.1996 32.4862 19.1996ZM28.5002 54.3996V25.5996H36.5002V54.3996H28.5002Z" fill="#FBD314"/>
</g>
</g>
</svg>
