<svg width="300" height="300" viewBox="0 0 300 300" fill="none" xmlns="http://www.w3.org/2000/svg">
<g opacity="0.5">
<mask id="mask0_3847_1920" style="mask-type:alpha" maskUnits="userSpaceOnUse" x="0" y="0" width="300" height="300">
<rect width="300" height="300" fill="#D9D9D9"/>
</mask>
<g mask="url(#mask0_3847_1920)">
<path d="M150 288.147C133.589 288.147 118.161 284.905 103.715 278.421C89.2672 271.936 76.6985 263.142 66.0089 252.036C55.3193 240.931 46.8537 227.873 40.612 212.863C34.3703 197.856 31.2495 181.827 31.2495 164.779C31.2495 147.73 34.3703 131.702 40.612 116.694C46.8537 101.684 55.3193 88.6268 66.0089 77.5215C76.6985 66.4161 89.2672 57.6212 103.715 51.1368C118.161 44.6524 133.589 41.4102 150 41.4102C166.41 41.4102 181.838 44.6524 196.284 51.1368C210.732 57.6212 223.301 66.4161 233.99 77.5215C244.68 88.6268 253.145 101.684 259.387 116.694C265.629 131.702 268.749 147.73 268.749 164.779C268.749 181.827 265.629 197.856 259.387 212.863C253.145 227.873 244.68 240.931 233.99 252.036C223.301 263.142 210.732 271.936 196.284 278.421C181.838 284.905 166.41 288.147 150 288.147ZM140.625 268.068V249.588C132.772 248.755 125.32 246.762 118.268 243.608C111.218 240.452 104.736 236.46 98.8214 231.632L86.2245 244.793C93.7412 251.336 102.095 256.643 111.287 260.714C120.477 264.785 130.256 267.236 140.625 268.068ZM159.374 268.068C169.743 267.236 179.503 264.785 188.653 260.714C197.805 256.643 206.138 251.336 213.653 244.793L201.178 231.632C195.263 236.46 188.781 240.452 181.731 243.608C174.679 246.762 167.227 248.755 159.374 249.588V268.068ZM150 230.833C167.612 230.833 182.612 224.398 194.999 211.529C207.387 198.66 213.581 183.076 213.581 164.779C213.581 146.481 207.387 130.898 194.999 118.029C182.612 105.159 167.612 98.7246 150 98.7246C132.387 98.7246 117.387 105.159 105 118.029C92.612 130.898 86.4183 146.481 86.4183 164.779C86.4183 183.076 92.612 198.66 105 211.529C117.387 224.398 132.387 230.833 150 230.833ZM227.018 231.034C233.316 223.225 238.424 214.546 242.343 204.997C246.262 195.45 248.621 185.29 249.421 174.518H231.634C230.832 182.676 228.913 190.418 225.878 197.744C222.84 205.068 218.997 211.803 214.349 217.947L227.018 231.034ZM72.9808 231.034L85.6495 217.746C81.0016 211.604 77.1589 204.903 74.1214 197.644C71.086 190.384 69.1672 182.676 68.3651 174.518H50.5776C51.3776 185.29 53.737 195.45 57.6558 204.997C61.5745 214.546 66.6828 223.225 72.9808 231.034ZM150 212.977L115.143 164.779L150 116.581L184.734 164.779L150 212.977ZM50.5776 155.039H68.3651C69.1672 146.882 71.086 139.173 74.1214 131.914C77.1589 124.655 81.0016 117.954 85.6495 111.811L72.9808 98.65C66.6828 106.457 61.5745 115.114 57.6558 124.622C53.737 134.128 51.3776 144.267 50.5776 155.039ZM231.634 155.039H249.421C248.621 144.267 246.23 134.128 242.246 124.622C238.265 115.114 233.126 106.457 226.828 98.65L214.349 111.61C218.997 117.755 222.84 124.489 225.878 131.813C228.913 139.14 230.832 146.882 231.634 155.039ZM99.0151 97.926C104.928 93.0973 111.378 89.1051 118.365 85.9495C125.353 82.796 132.772 80.8026 140.625 79.9694V61.49C130.256 62.3211 120.477 64.7723 111.287 68.8434C102.095 72.9146 93.7412 78.2216 86.2245 84.7645L99.0151 97.926ZM201.178 97.926L213.653 84.9625C206.138 78.4197 197.805 73.0802 188.653 68.9441C179.503 64.8058 169.743 62.3211 159.374 61.49V79.9694C167.227 80.8026 174.679 82.796 181.731 85.9495C188.781 89.1051 195.263 93.0973 201.178 97.926Z" fill="white"/>
</g>
</g>
</svg>
