<svg width="300" height="300" viewBox="0 0 300 300" fill="none" xmlns="http://www.w3.org/2000/svg">
<g opacity="0.5">
<mask id="mask0_3847_1833" style="mask-type:alpha" maskUnits="userSpaceOnUse" x="0" y="0" width="300" height="300">
<rect width="300" height="300" fill="#D9D9D9"/>
</mask>
<g mask="url(#mask0_3847_1833)">
<path d="M59.0596 265.422C47.2804 265.422 37.2648 261.102 29.0127 252.462C20.7585 243.82 16.5033 233.297 16.2471 220.893C16.2471 219.062 16.3314 217.256 16.5002 215.474C16.6689 213.693 16.9617 211.871 17.3783 210.007L43.6283 100.923C46.3637 89.9781 51.9325 81.1107 60.3346 74.3211C68.7367 67.5315 78.3117 64.1367 89.0596 64.1367H210.935C221.682 64.1367 231.257 67.5315 239.66 74.3211C248.062 81.1107 253.63 89.9781 256.366 100.923L282.616 210.007C283.033 211.871 283.377 213.747 283.65 215.637C283.923 217.526 284.06 219.386 284.06 221.217C284.06 233.621 279.849 244.09 271.428 252.625C263.005 261.156 252.844 265.422 240.944 265.422C232.748 265.422 225.181 263.188 218.244 258.718C211.304 254.247 206.04 248.19 202.45 240.547L193.578 221.594C192.297 218.889 190.374 216.86 187.81 215.507C185.245 214.154 182.537 213.478 179.685 213.478H120.31C117.478 213.478 114.775 214.143 112.2 215.474C109.625 216.808 107.697 218.848 106.416 221.594L97.5439 240.547C94.0356 248.274 88.7846 254.352 81.7908 258.78C74.7971 263.208 67.22 265.422 59.0596 265.422ZM60.0283 245.943C64.5262 245.943 68.6502 244.694 72.4002 242.197C76.1502 239.699 78.9794 236.362 80.8877 232.184L89.6377 213.552C92.5148 207.429 96.7356 202.64 102.3 199.183C107.865 195.727 113.868 193.998 120.31 193.998H179.685C186.176 193.998 192.19 195.8 197.725 199.404C203.263 203.01 207.577 207.768 210.669 213.679L219.419 232.184C221.327 236.362 224.156 239.699 227.906 242.197C231.656 244.694 235.807 245.943 240.36 245.943C247.07 245.943 252.822 243.608 257.616 238.937C262.41 234.269 264.87 228.488 264.997 221.594C264.997 221.477 264.749 219.171 264.253 214.676L238.003 105.916C236.385 99.4061 233.087 94.0623 228.11 89.8851C223.135 85.7057 217.41 83.616 210.935 83.616H89.0596C82.4992 83.616 76.7002 85.7057 71.6627 89.8851C66.6252 94.0623 63.4012 99.4061 61.9908 105.916L35.7408 214.676C35.4054 215.808 35.1575 218.006 34.9971 221.269C34.9971 228.247 37.4533 234.104 42.3658 238.84C47.2762 243.575 53.1637 245.943 60.0283 245.943ZM168.747 150.294C171.807 150.294 174.416 149.175 176.572 146.937C178.726 144.696 179.803 141.987 179.803 138.807C179.803 135.628 178.726 132.918 176.572 130.678C174.416 128.44 171.807 127.321 168.747 127.321C165.687 127.321 163.078 128.44 160.922 130.678C158.768 132.918 157.691 135.628 157.691 138.807C157.691 141.987 158.768 144.696 160.922 146.937C163.078 149.175 165.687 150.294 168.747 150.294ZM193.747 124.321C196.807 124.321 199.416 123.202 201.572 120.964C203.726 118.724 204.803 116.014 204.803 112.835C204.803 109.655 203.726 106.946 201.572 104.706C199.416 102.468 196.807 101.349 193.747 101.349C190.687 101.349 188.078 102.468 185.922 104.706C183.768 106.946 182.691 109.655 182.691 112.835C182.691 116.014 183.768 118.724 185.922 120.964C188.078 123.202 190.687 124.321 193.747 124.321ZM193.747 176.266C196.807 176.266 199.416 175.147 201.572 172.909C203.726 170.669 204.803 167.959 204.803 164.78C204.803 161.6 203.726 158.89 201.572 156.65C199.416 154.412 196.807 153.293 193.747 153.293C190.687 153.293 188.078 154.412 185.922 156.65C183.768 158.89 182.691 161.6 182.691 164.78C182.691 167.959 183.768 170.669 185.922 172.909C188.078 175.147 190.687 176.266 193.747 176.266ZM218.747 150.294C221.807 150.294 224.416 149.175 226.572 146.937C228.726 144.696 229.803 141.987 229.803 138.807C229.803 135.628 228.726 132.918 226.572 130.678C224.416 128.44 221.807 127.321 218.747 127.321C215.687 127.321 213.078 128.44 210.922 130.678C208.768 132.918 207.691 135.628 207.691 138.807C207.691 141.987 208.768 144.696 210.922 146.937C213.078 149.175 215.687 150.294 218.747 150.294ZM106.241 169.276C108.393 169.276 110.174 168.544 111.585 167.081C112.995 165.618 113.7 163.769 113.7 161.533V146.55H128.122C130.274 146.55 132.054 145.819 133.463 144.356C134.871 142.895 135.575 141.047 135.575 138.814C135.575 136.578 134.871 134.727 133.463 133.262C132.054 131.797 130.274 131.064 128.122 131.064H113.7V116.081C113.7 113.846 112.996 111.996 111.588 110.533C110.181 109.07 108.403 108.338 106.253 108.338C104.101 108.338 102.32 109.07 100.91 110.533C99.4992 111.996 98.7939 113.846 98.7939 116.081V131.064H84.3721C82.22 131.064 80.4398 131.796 79.0314 133.259C77.6231 134.72 76.9189 136.567 76.9189 138.801C76.9189 141.037 77.6231 142.887 79.0314 144.352C80.4398 145.818 82.22 146.55 84.3721 146.55H98.7939V161.533C98.7939 163.769 99.4981 165.618 100.906 167.081C102.313 168.544 104.091 169.276 106.241 169.276Z" fill="white"/>
</g>
</g>
</svg>
